<?xml version="1.0" standalone="no"?>
<!DOCTYPE svg PUBLIC "-//W3C//DTD SVG 1.1//EN" "http://www.w3.org/Graphics/SVG/1.1/DTD/svg11.dtd" >
<svg xmlns="http://www.w3.org/2000/svg">
<metadata>
<json>
<![CDATA[
{
	"fontFamily": "cw-mp5",
	"majorVersion": 1,
	"minorVersion": 3,
	"fontURL": "https://www.clickworker.com",
	"copyright": "Clickworker GmbH",
	"designer": "Oussema Dhiflaoui",
	"version": "Version 1.3",
	"fontId": "cw-mp5",
	"psName": "cw-mp5",
	"subFamily": "Regular",
	"fullName": "cw-mp5",
	"description": "Font generated by IcoMoon."
}
]]>
</json>
</metadata>
<defs>
<font id="cw-mp5" horiz-adv-x="1024">
<font-face units-per-em="1024" ascent="960" descent="-64" />
<missing-glyph horiz-adv-x="1024" />
<glyph unicode="&#x20;" horiz-adv-x="512" d="" />
<glyph unicode="&#xe900;" glyph-name="rules" data-tags="rules" d="M614.208 320.484v128.015h-204.428v-153.811h-102.208v204.428c0 28.778 22.825 51.603 51.603 51.603h256.031v128.015l178.62-178.62zM1009.173 484.216l-460.458 460.458h-0.998c-19.843 19.843-52.601 19.843-72.444 0l-460.458-460.458c-19.843-19.843-19.843-52.601 0-72.444l460.458-460.458c19.843-19.843 52.601-19.843 72.444 0l460.458 460.458c20.841 19.843 20.841 52.601 0.998 72.444z" />
<glyph unicode="&#xe901;" glyph-name="magic-sparkles-s" data-tags="wand-magic-sparkles-solid" d="M472.897 861.318c2.681 7.149 10.624 10.722 17.772 7.943 3.673-1.39 6.552-4.27 7.943-7.943l25.219-67.414 67.414-25.219c7.149-2.681 10.722-10.624 8.043-17.673-1.39-3.773-4.368-6.652-8.043-8.043l-67.414-25.219-25.219-67.414c-2.681-7.149-10.624-10.722-17.772-7.943-3.673 1.39-6.552 4.27-7.943 7.943l-25.219 67.414-69.003 25.219c-4.965 2.184-7.943 7.446-7.346 12.908-0.595 5.46 2.383 10.624 7.346 12.908l69.003 25.219 25.219 67.414zM792.293 845.134c33.459 33.557 87.866 33.657 121.424 0.198l62.052-62.052c33.459-33.557 33.459-87.866 0-121.325l-682.178-682.178c-33.557-33.459-87.866-33.459-121.325 0l-61.854 61.854c-33.557 33.459-33.657 87.866-0.198 121.424l682.079 681.979zM853.055 764.218l-187.944-187.746 41.7-41.7 187.746 187.844-41.5 41.6zM41.311 660.566l101.071 37.927 37.927 101.071c3.971 10.624 15.886 16.084 26.508 12.113 5.56-2.084 9.928-6.454 12.113-12.113l37.927-101.071 101.071-37.927c10.624-3.971 16.084-15.886 12.113-26.508-2.084-5.56-6.454-9.928-12.113-12.113l-101.071-37.927-37.927-101.071c-3.971-10.624-15.886-16.084-26.508-12.113-5.56 2.084-9.928 6.454-12.113 12.113l-37.927 101.071-101.071 38.025c-10.624 3.971-16.084 15.886-12.113 26.508 2.084 5.56 6.454 9.928 12.113 12.113v0zM670.869 202.571l101.071 37.927 37.927 101.071c3.971 10.624 15.886 16.084 26.508 12.113 5.56-2.084 9.928-6.454 12.113-12.113l37.927-101.071 101.071-37.927c10.624-3.971 16.084-15.886 12.113-26.508-2.084-5.56-6.454-9.928-12.113-12.113l-101.071-37.927-37.927-101.071c-3.971-10.624-15.886-16.084-26.508-12.113-5.56 2.084-9.928 6.454-12.113 12.113l-37.927 101.071-101.071 37.927c-10.624 3.971-16.084 15.886-12.113 26.508 2.084 5.56 6.454 9.928 12.113 12.113z" />
<glyph unicode="&#xe902;" glyph-name="location" data-tags="location" d="M1023.287 900.214c-2.183 16.151-8.73 29.246-19.497 39.14-10.767 10.040-24.59 15.86-41.322 17.46-16.878 1.601-35.066-2.037-54.708-11.058l-861.797-399.834c-18.479-8.585-31.283-20.37-38.412-35.066s-9.167-29.682-5.966-45.105 11.058-28.227 23.571-38.703c12.368-10.476 28.809-15.86 49.179-16.296l392.559-1.31c3.347 0 5.529-0.582 6.548-1.746s1.455-3.201 1.455-6.257l1.31-390.377c0.437-20.952 5.966-37.539 16.587-49.761s23.717-19.497 39.285-21.971c15.569-2.474 30.992 0.437 46.269 8.439 15.278 8.148 27.354 21.825 36.375 41.177l397.797 856.996c9.603 19.788 13.241 37.83 10.913 53.981zM917.945 849.58l-356.33-774.206c-0.582-1.019-1.019-1.601-1.601-1.455-0.582 0-0.873 0.582-0.873 1.746l2.474 381.065c0 11.786-3.783 21.534-11.495 29.246-7.566 7.712-17.606 11.495-29.828 11.495l-380.628-2.474c-0.873 0-1.31 0.437-1.601 1.164s0.291 1.31 1.31 1.746l775.516 355.020c1.455 0.728 2.619 0.728 3.347 0.146 0.873-0.582 0.582-1.746-0.582-3.638z" />
<glyph unicode="&#xe903;" glyph-name="lock" data-tags="lock" d="M839.193 513.383c-14.841 15.261-35.281 24.641-61.462 28.281v126.285c0 65.803-12.6 120.265-37.941 163.526s-58.242 75.463-98.564 96.744c-40.322 21.281-83.443 31.781-129.365 31.781s-88.483-10.64-129.085-31.781c-40.602-21.281-73.363-53.482-98.564-96.744s-37.801-97.724-37.801-163.526v-126.285c-26.181-3.64-46.622-13.021-61.462-28.281-19.461-20.021-29.261-51.242-29.261-93.524v-360.234c0-42.282 9.8-73.363 29.261-93.524s48.862-30.101 87.923-30.101h478.399c39.062 0 68.463 10.080 87.923 30.101s29.261 51.242 29.261 93.524v360.234c0 42.282-9.8 73.503-29.261 93.524zM355.474 789.613c16.661 29.961 38.782 52.502 66.363 67.763s57.542 22.821 90.024 22.821 62.862-7.56 90.444-22.821c27.581-15.261 49.702-37.801 66.503-67.763 16.661-29.961 25.061-66.783 25.061-110.464v-135.665h-363.454v135.665c0 43.682 8.4 80.503 25.061 110.464zM784.591 54.585c0-14.701-2.94-25.061-8.96-31.221-5.88-6.020-14.981-9.1-27.021-9.1h-472.938c-12.18 0-21.141 3.080-27.021 9.1s-8.96 16.381-8.96 31.221v371.154c0 14.281 2.94 24.501 8.96 30.521 5.88 6.020 14.981 9.1 27.021 9.1h472.798c12.18 0 21.141-3.080 27.021-9.1s8.96-16.241 8.96-30.521v-371.154z" />
<glyph unicode="&#xe904;" glyph-name="url" data-tags="url" d="M735.178 345.586c4.453 34.003 6.882 68.141 7.151 102.414-0.27 34.273-2.699 68.411-7.151 102.414h173.118c17.811-67.061 17.811-137.631 0-204.827zM644.503 61.015c30.899 57.616 54.648 118.875 70.704 182.293h150.989c-49.655-85.412-128.32-150.045-221.694-182.293zM631.685 345.586h-239.505c-10.93 67.871-10.93 136.956 0 204.827h239.64c5.127-33.868 7.826-68.141 8.231-102.414-0.405-34.273-3.103-68.546-8.231-102.414zM512 40.505c-43.448 61.799-76.372 130.344-97.826 202.803h195.517c-21.319-72.459-54.378-140.869-97.826-202.803zM307.038 652.692h-149.505c49.115 85.682 127.781 150.449 221.289 182.293-30.63-57.886-54.648-119.010-71.649-182.293zM157.668 243.038h149.37c17.001-63.283 41.154-124.407 71.649-182.293-93.373 32.114-171.904 96.881-221.289 182.293zM115.434 345.452c-17.811 67.061-17.811 137.631 0 204.827h173.118c-4.453-34.003-6.882-68.141-7.151-102.414 0.27-34.273 2.699-68.411 7.151-102.414zM511.73 855.9c43.448-61.934 76.372-130.614 97.826-203.208h-195.517c21.319 72.594 54.378 141.274 97.826 203.208zM866.197 652.692h-150.989c-16.057 63.418-39.805 124.677-70.704 182.293 93.508-31.979 172.173-96.746 221.694-182.293zM511.865 960.068c-282.683 0-511.933-229.25-511.933-512.068 0-282.683 229.25-511.933 512.068-511.933 282.683 0 511.933 229.25 511.933 511.933-0.27 282.683-229.385 511.663-512.068 511.933z" />
<glyph unicode="&#xe905;" glyph-name="doc-richtext" data-tags="doc-richtext" d="M577.964 518.799h145.973c8.404 0 15.426 2.878 21.067 8.634s8.519 12.778 8.519 21.182-2.878 14.735-8.519 20.376c-5.641 5.641-12.663 8.404-21.067 8.404h-145.973c-8.749 0-15.887-2.763-21.528-8.404s-8.404-12.433-8.404-20.376 2.763-15.311 8.404-21.182c5.641-5.756 12.778-8.634 21.528-8.634zM577.964 685.264h145.973c8.404 0 15.426 2.878 21.067 8.634s8.519 12.778 8.519 21.182-2.878 15.196-8.519 20.607c-5.641 5.411-12.663 8.174-21.067 8.174h-145.973c-8.749 0-15.887-2.763-21.528-8.174s-8.404-12.318-8.404-20.607 2.763-15.311 8.404-21.182c5.641-5.756 12.778-8.634 21.528-8.634zM876.588 922.298c-24.751 25.096-61.82 37.76-111.207 37.76h-507.338c-49.272 0-86.226-12.548-110.861-37.76-24.636-25.096-36.954-62.511-36.954-112.128v-724.34c0-49.962 12.318-87.377 36.954-112.358s61.59-37.414 110.861-37.414h507.338c49.387 0 86.456 12.433 111.207 37.414s37.184 62.396 37.184 112.358v724.34c0 49.617-12.433 87.031-37.184 112.128zM836.526 86.981c0-23.83-6.332-42.134-18.995-55.028s-31.313-19.225-55.834-19.225h-499.394c-24.866 0-43.631 6.447-56.294 19.225-12.663 12.894-18.995 31.198-18.995 55.028v721.923c0 23.83 6.332 42.134 18.995 55.028s31.428 19.225 56.294 19.225h499.279c24.521 0 43.17-6.447 55.834-19.225 12.663-12.894 18.995-31.198 18.995-55.028v-721.923zM296.609 504.179c12.894 0 21.182 7.713 24.866 23.024l16.923 46.739h89.334l17.383-46.739c4.029-15.311 12.318-23.024 24.866-23.024 16.808 0 25.211 8.058 25.211 24.060 0 4.029-0.921 9.325-2.763 16.117l-70.569 193.864c-7.137 20.031-20.261 30.047-39.371 30.047s-30.852-10.016-37.875-30.047l-70.569-193.864c-1.842-6.101-2.763-11.512-2.763-16.117 0-7.598 2.187-13.469 6.562-17.729s10.591-6.332 18.65-6.332zM381.453 714.159h3.108l32.694-100.616h-67.921l32.119 100.616zM691.128 420.256h-357.796c-42.825 0-64.237-21.182-64.237-63.662v-232.774h33.615l62.511 63.547c8.519 7.943 17.844 11.857 28.205 11.857s20.492-3.914 29.241-11.857l39.026-35.803 97.853 87.031c10.936 9.21 22.218 13.699 33.615 13.699 5.986 0 11.857-1.036 17.729-3.223s11.052-5.641 15.426-10.591l95.090-109.595h33.615v227.709c0 42.48-21.297 63.662-63.777 63.662zM462.728 253.676c-10.246-10.246-22.333-15.311-36.378-15.311s-26.593 5.065-36.493 15.311-14.966 22.333-14.966 36.378 4.95 26.708 14.966 37.069c10.016 10.361 22.218 15.196 36.493 14.505 14.045-0.345 26.132-5.411 36.378-15.196s15.311-21.873 15.311-36.263-5.065-26.132-15.311-36.378z" />
<glyph unicode="&#xe906;" glyph-name="number" data-tags="number" d="M972.531 678.611c-7.323 8.014-16.857 12.021-28.74 12.021h-174.927l42.695 211.957c0.415 1.658 0.829 4.145 1.244 7.185s0.691 6.356 0.691 9.948c0 12.574-4.145 22.384-12.574 29.569-8.429 7.047-18.792 10.639-31.365 10.639-14.785 0-25.838-3.731-33.023-11.054-7.323-7.461-12.021-17.41-14.37-29.984l-46.288-228.262h-248.988l42.834 211.957c0.415 1.658 0.829 4.145 1.244 7.185s0.553 6.356 0.553 9.948c0 12.574-4.145 22.384-12.574 29.569-8.429 7.047-18.792 10.639-31.365 10.639-14.785 0-25.838-3.731-33.3-11.054-7.461-7.461-12.297-17.41-14.785-29.984l-46.15-228.262h-173.131c-14.094 0-25.7-4.698-34.82-14.232s-13.679-21.693-13.679-36.34c0-11.883 3.592-21.555 10.916-29.155s16.719-11.468 28.187-11.468h164.15l-56.098-277.866h-169.4c-14.508 0-26.253-4.698-35.372-14.232s-13.679-21.693-13.679-36.34c0-11.883 3.592-21.555 10.916-29.155s16.719-11.468 28.187-11.468h160.972l-47.946-237.519c-1.244-5.389-1.934-11.054-1.934-17.133 0-12.712 4.007-22.384 11.883-29.293 8.014-6.909 18.239-10.363 30.951-10.363 27.22 0 43.386 13.126 48.499 39.241l51.539 254.929h248.85l-48.084-237.519c-1.244-5.389-1.934-11.054-1.934-17.133 0-12.712 4.007-22.384 12.021-29.293s18.239-10.363 30.813-10.363c27.358 0 43.663 13.126 49.19 39.241l51.4 254.929h187.086c14.37 0 26.253 4.698 35.372 14.232s13.679 21.279 13.679 35.372c0 11.745-3.592 21.693-10.916 29.707s-16.857 12.021-28.74 12.021h-178.243l55.96 277.866h183.908c14.37 0 26.253 4.698 35.372 14.232s13.679 21.279 13.679 35.372c0 11.745-3.592 21.693-10.916 29.707zM601.122 321.572h-248.85l56.236 277.866h248.988l-56.236-277.866z" />
<glyph unicode="&#xe907;" glyph-name="calendar" data-tags="calendar" d="M612.114 242.408h-30.136c-9.066 0-15.324-1.66-18.899-4.98-3.448-3.32-5.236-9.45-5.236-18.388v-30.136c0-8.939 1.788-15.068 5.236-18.388s9.833-4.98 18.899-4.98h30.136c8.939 0 15.196 1.66 18.771 4.98s5.363 9.45 5.363 18.388v30.136c0 8.939-1.788 15.068-5.363 18.388s-9.833 4.98-18.771 4.98zM441.384 578.506h-30.136c-9.066 0-15.324-1.66-18.899-4.98-3.448-3.32-5.236-9.45-5.236-18.388v-30.136c0-8.939 1.788-15.068 5.236-18.388s9.833-4.98 18.899-4.98h30.136c9.066 0 15.324 1.66 18.899 4.98 3.448 3.32 5.236 9.45 5.236 18.388v30.136c0 8.939-1.788 15.068-5.236 18.388s-9.833 4.98-18.899 4.98zM441.384 410.457h-30.136c-9.066 0-15.324-1.66-18.899-4.98-3.448-3.32-5.236-9.45-5.236-18.388v-30.136c0-8.939 1.788-15.068 5.236-18.388s9.833-4.98 18.899-4.98h30.136c9.066 0 15.324 1.66 18.899 4.98 3.448 3.32 5.236 9.45 5.236 18.388v30.136c0 8.939-1.788 15.068-5.236 18.388s-9.833 4.98-18.899 4.98zM270.781 242.408h-30.136c-8.939 0-15.196-1.66-18.771-4.98s-5.363-9.45-5.363-18.388v-30.136c0-8.939 1.788-15.068 5.363-18.388s9.833-4.98 18.771-4.98h30.136c9.066 0 15.324 1.66 18.899 4.98 3.448 3.32 5.236 9.45 5.236 18.388v30.136c0 8.939-1.788 15.068-5.236 18.388s-9.833 4.98-18.899 4.98zM270.781 410.457h-30.136c-8.939 0-15.196-1.66-18.771-4.98s-5.363-9.45-5.363-18.388v-30.136c0-8.939 1.788-15.068 5.363-18.388s9.833-4.98 18.771-4.98h30.136c9.066 0 15.324 1.66 18.899 4.98 3.448 3.32 5.236 9.45 5.236 18.388v30.136c0 8.939-1.788 15.068-5.236 18.388s-9.833 4.98-18.899 4.98zM441.384 242.408h-30.136c-9.066 0-15.324-1.66-18.899-4.98-3.448-3.32-5.236-9.45-5.236-18.388v-30.136c0-8.939 1.788-15.068 5.236-18.388s9.833-4.98 18.899-4.98h30.136c9.066 0 15.324 1.66 18.899 4.98 3.448 3.32 5.236 9.45 5.236 18.388v30.136c0 8.939-1.788 15.068-5.236 18.388s-9.833 4.98-18.899 4.98zM782.845 578.506h-30.136c-8.939 0-15.196-1.66-18.771-4.98s-5.363-9.45-5.363-18.388v-30.136c0-8.939 1.788-15.068 5.363-18.388s9.833-4.98 18.771-4.98h30.136c9.066 0 15.324 1.66 18.899 4.98 3.448 3.32 5.236 9.45 5.236 18.388v30.136c0 8.939-1.788 15.068-5.236 18.388s-9.833 4.98-18.899 4.98zM612.114 410.457h-30.136c-9.066 0-15.324-1.66-18.899-4.98-3.448-3.32-5.236-9.45-5.236-18.388v-30.136c0-8.939 1.788-15.068 5.236-18.388s9.833-4.98 18.899-4.98h30.136c8.939 0 15.196 1.66 18.771 4.98s5.363 9.45 5.363 18.388v30.136c0 8.939-1.788 15.068-5.363 18.388s-9.833 4.98-18.771 4.98zM983.839 881.147c-26.816 26.689-67.168 40.097-120.929 40.097h-701.821c-53.505 0-93.729-13.28-120.673-39.969-27.072-26.689-40.48-66.53-40.48-119.524v-627.246c0-53.122 13.536-92.963 40.48-119.652 27.072-26.689 67.296-39.969 120.673-39.969h701.693c53.76 0 94.112 13.408 120.929 40.097s40.224 66.53 40.224 119.524v627.118c0 52.994-13.408 92.708-40.224 119.524zM941.444 129.78c0-23.879-6.257-41.885-18.644-53.76-12.514-12.003-30.136-18.005-53.122-18.005h-715.868c-22.858 0-40.352 6.002-52.739 18.005s-18.516 29.881-18.516 53.76v484.226c0 23.879 6.129 41.885 18.516 53.888s29.881 18.005 52.739 18.005h715.995c22.985 0 40.608-6.002 53.122-18.005s18.644-30.009 18.644-53.888v-484.226zM612.114 578.506h-30.136c-9.066 0-15.324-1.66-18.899-4.98-3.448-3.32-5.236-9.45-5.236-18.388v-30.136c0-8.939 1.788-15.068 5.236-18.388s9.833-4.98 18.899-4.98h30.136c8.939 0 15.196 1.66 18.771 4.98s5.363 9.45 5.363 18.388v30.136c0 8.939-1.788 15.068-5.363 18.388s-9.833 4.98-18.771 4.98zM782.845 410.457h-30.136c-8.939 0-15.196-1.66-18.771-4.98s-5.363-9.45-5.363-18.388v-30.136c0-8.939 1.788-15.068 5.363-18.388s9.833-4.98 18.771-4.98h30.136c9.066 0 15.324 1.66 18.899 4.98s5.236 9.45 5.236 18.388v30.136c0 8.939-1.788 15.068-5.236 18.388s-9.833 4.98-18.899 4.98z" />
<glyph unicode="&#xe908;" glyph-name="cameraoutline" data-tags="camera.outline" d="M626.744 603.018c-34.435 20.375-72.683 30.503-114.744 30.503s-80.309-10.128-114.625-30.503-61.84-47.78-82.215-82.335c-20.494-34.554-30.741-72.922-30.741-114.983s10.247-80.786 30.741-115.102c20.494-34.435 47.899-61.84 82.215-82.335s72.564-30.741 114.625-30.741 80.19 10.247 114.625 30.741c34.435 20.494 61.721 47.899 82.096 82.335s30.503 72.802 30.503 115.102-10.128 80.428-30.384 114.983c-20.256 34.554-47.661 62.079-82.096 82.335zM654.269 322.532c-14.656-25.022-34.554-44.801-59.457-59.457s-52.546-22.043-82.692-22.043-57.67 7.387-82.692 22.043c-25.022 14.656-44.921 34.554-59.696 59.457-14.775 25.022-22.282 52.666-22.282 83.169s7.387 58.027 22.282 82.93c14.775 24.903 34.673 44.682 59.457 59.338s52.427 22.043 82.93 22.043 57.67-7.387 82.692-22.043c25.022-14.656 44.801-34.554 59.457-59.338 14.656-24.903 22.043-52.546 22.043-82.93s-7.387-58.266-22.043-83.169zM991.114 712.996c-21.924 21.567-54.572 32.29-97.825 32.29h-119.391c-16.562 0-28.597 2.026-36.222 5.958s-16.086 11.2-25.38 21.686l-33.244 37.533c-10.605 11.2-22.043 20.018-34.554 26.094-12.511 6.196-29.312 9.175-50.64 9.175h-166.457c-21.567 0-38.486-3.098-50.878-9.175-12.392-6.196-23.831-14.894-34.316-26.094l-33.72-37.533c-9.175-10.366-17.635-17.635-25.26-21.567-7.626-4.051-19.66-5.958-35.865-5.958h-116.651c-43.372 0-76.020-10.724-97.944-32.29s-32.886-53.738-32.886-96.752v-436.219c0-43.014 10.962-75.305 32.886-96.99s54.572-32.529 97.944-32.529h762.459c43.372 0 75.9 10.843 97.825 32.529s32.886 54.095 32.886 96.99v436.219c0 43.014-10.962 75.185-32.886 96.752zM956.679 183.242c0-21.686-5.6-38.010-16.92-48.972s-27.167-16.324-47.542-16.324h-760.315c-20.613 0-36.58 5.481-47.899 16.324-11.32 10.962-16.92 27.286-16.92 48.972v429.308c0 21.805 5.6 38.129 16.92 49.21s27.286 16.562 47.899 16.562h132.379c18.588 0 33.72 2.145 45.397 6.553s22.758 12.392 33.244 23.95l32.41 36.58c12.034 13.107 22.52 21.924 31.695 26.452s22.877 6.792 41.227 6.792h124.515c18.469 0 32.29-2.264 41.584-6.792s19.779-13.345 31.456-26.452l32.767-36.58c10.247-11.558 21.090-19.541 32.767-23.95s26.929-6.553 45.755-6.553h135c20.375 0 36.222-5.481 47.542-16.562s16.92-27.405 16.92-49.21v-429.308zM808.81 610.763c-14.298 0-26.69-5.124-36.937-15.49s-15.371-22.401-15.371-36.222c0-14.656 5.124-26.929 15.371-36.937s22.639-14.894 36.937-14.775c14.060 0 26.333 4.885 36.58 14.894s15.371 22.282 15.371 36.818-5.124 25.856-15.371 36.222c-10.247 10.366-22.401 15.49-36.58 15.49z" />
<glyph unicode="&#xe909;" glyph-name="upload-square" data-tags="upload-square" d="M354.316 744.503c10.098 0 18.42 3.551 24.967 10.764l68.91 73.127 30.516 32.513-2.996-68.355v-465.727c0-9.876 3.662-18.199 10.875-25.189 7.213-6.88 15.646-10.431 25.189-10.431s18.309 3.44 25.633 10.431c7.213 6.88 10.875 15.313 10.875 25.189v465.727l-2.996 68.244 30.405-32.402 68.799-73.127c6.214-7.213 14.426-10.764 24.524-10.764 9.321 0 17.311 2.996 23.747 8.988s9.654 13.538 9.654 22.637-3.773 16.756-11.208 23.747l-153.245 148.029c-4.328 4.661-8.655 7.879-12.872 9.543s-8.655 2.552-13.427 2.552c-4.439 0-8.766-0.888-12.983-2.552s-8.655-4.883-13.316-9.543l-153.356-148.029c-7.102-7.102-10.653-14.98-10.653-23.747s2.996-16.645 9.099-22.637c6.103-5.992 13.982-8.988 23.747-8.988zM879.078 634.757c-23.747 23.636-59.367 35.398-106.75 35.398h-126.28v-73.349h125.17c22.526 0 39.837-5.992 52.154-17.866s18.42-29.628 18.42-53.264v-445.087c0-23.636-6.103-41.391-18.42-53.264s-29.628-17.755-52.154-17.755h-518.325c-22.637 0-40.059 5.881-52.265 17.755s-18.309 29.628-18.309 53.264v445.087c0 23.636 6.103 41.391 18.309 53.264s29.628 17.866 52.265 17.866h125.281v73.349h-126.502c-47.161 0-82.781-11.762-106.639-35.287s-35.842-58.701-35.842-105.64v-452.3c0-46.939 11.984-82.115 35.842-105.64s59.367-35.287 106.639-35.287h520.655c47.494 0 83.114 11.762 106.75 35.398 23.747 23.636 35.62 58.812 35.62 105.529v452.3c0 46.717-11.873 81.893-35.62 105.529z" />
<glyph unicode="&#xe90a;" glyph-name="videooutline" data-tags="video.outline" d="M1007.365 709.185c-11.018 12.098-25.708 18.255-43.855 18.255-8.533 0-17.283-2.16-26.032-6.373-8.857-4.321-17.391-9.83-25.708-16.743l-156.408-132.213v56.925c0 50.228-14.258 89.33-42.883 117.306-28.516 27.976-68.051 42.019-118.603 42.019h-432.392c-48.284 0-87.278-14.042-116.874-42.019-29.705-27.976-44.503-67.078-44.503-117.306v-361.316c0-50.444 14.258-89.762 42.883-117.738s68.051-42.019 118.603-42.019h432.5c50.444 0 89.978 14.042 118.603 42.019s42.883 67.295 42.883 117.738v56.925l156.408-132.645c8.317-6.913 16.851-12.53 25.708-16.743s17.499-6.373 26.032-6.373c18.255 0 32.837 6.049 43.855 18.255 11.018 12.098 16.527 27.868 16.527 47.203v427.639c0 19.335-5.509 34.997-16.527 47.203zM688.716 277.117c0-35.862-9.289-62.65-27.76-80.257s-44.719-26.464-78.636-26.464h-409.276c-33.917 0-60.165 8.857-78.636 26.464s-27.76 44.395-27.76 80.257v341.873c0 35.862 9.289 62.65 27.76 80.473s44.719 26.68 78.636 26.68h409.276c33.917 0 60.165-8.857 78.636-26.68s27.76-44.611 27.76-80.473v-341.873zM959.838 253.138c0-6.373-2.376-9.505-7.021-9.505-1.62 0-3.241 0.432-4.753 1.404s-3.241 1.944-5.185 3.132l-187.517 154.788v90.194l187.517 154.788c1.944 1.404 3.673 2.592 5.185 3.565s3.132 1.404 4.753 1.404c4.645 0 7.021-3.349 7.021-9.938v-389.833z" />
<glyph unicode="&#xe90b;" glyph-name="mic" data-tags="mic" d="M421.137 307.931c26.171-15.879 56.459-23.819 90.863-23.819s64.692 7.94 90.667 23.819c25.975 15.879 46.363 37.933 61.262 66.163s22.25 60.772 22.25 97.528v300.819c0 36.855-7.449 69.299-22.25 97.528-14.899 28.229-35.287 50.284-61.262 66.163s-56.165 23.819-90.667 23.819-64.692-7.94-90.863-23.819c-26.171-15.879-46.559-37.933-61.262-66.163-14.605-28.229-21.956-60.772-21.956-97.528v-300.819c0-36.855 7.351-69.299 21.956-97.528s35.091-50.284 61.262-66.163zM410.257 772.539c0 35.483 9.312 63.81 27.837 84.786 18.526 21.074 43.226 31.562 73.906 31.562s54.988-10.488 73.71-31.562c18.722-21.074 28.033-49.303 28.033-84.786v-300.819c0-35.483-9.312-63.81-28.033-84.786-18.722-21.074-43.226-31.562-73.71-31.562s-55.282 10.488-73.906 31.562c-18.526 21.074-27.837 49.303-27.837 84.786v300.819zM843.793 577.090c-7.155 6.959-15.781 10.488-25.681 10.488s-18.526-3.529-25.485-10.488c-6.959-6.959-10.488-15.683-10.488-25.975v-93.804c0-54.106-11.174-101.645-33.522-142.519s-53.714-72.632-94.098-95.274c-40.384-22.642-87.923-34.012-142.519-34.012s-102.037 11.37-142.421 34.012c-40.384 22.642-71.75 54.4-94.098 95.274s-33.522 88.315-33.522 142.519v93.804c0 10.39-3.529 19.016-10.488 25.975s-15.683 10.488-25.975 10.488-18.526-3.529-25.485-10.488c-6.959-6.959-10.488-15.683-10.488-25.975v-96.842c0-62.438 12.84-117.916 38.521-166.338s61.556-87.237 107.428-116.446c45.971-29.21 99.293-46.461 159.966-51.754v-111.349h-177.316c-9.998 0-18.526-3.529-25.681-10.488s-10.782-15.487-10.782-25.485 3.627-19.016 10.782-25.975c7.155-6.959 15.781-10.488 25.681-10.488h427.459c9.998 0 18.526 3.529 25.485 10.488s10.488 15.683 10.488 25.975-3.529 18.526-10.488 25.485-15.487 10.488-25.485 10.488h-177.806v111.349c60.772 5.391 114.29 22.642 160.358 51.754 46.069 29.21 82.042 67.927 107.722 116.446 25.681 48.421 38.521 103.9 38.521 166.338v96.842c0 10.39-3.627 19.016-10.782 25.975z" />
<glyph unicode="&#xe90c;" glyph-name="dropdownfield" data-tags="dropdownfield" d="M910.222 647.111h-796.444c-62.742 0-113.778-51.036-113.778-113.778v-170.667c0-62.742 51.036-113.778 113.778-113.778h796.444c62.742 0 113.778 51.036 113.778 113.778v170.667c0 62.742-51.036 113.778-113.778 113.778zM967.111 362.667c0-31.371-25.518-56.889-56.889-56.889h-796.444c-31.371 0-56.889 25.518-56.889 56.889v170.667c0 31.371 25.518 56.889 56.889 56.889h796.444c31.371 0 56.889-25.518 56.889-56.889v-170.667zM822.431 381.864l96.219 96.219h-192.439l96.219-96.219z" />
<glyph unicode="&#xe90d;" glyph-name="textfield" data-tags="textfield" d="M910.352 647.176h-796.705c-63.268 0-113.648-51.551-113.648-113.648v-171.057c0-63.268 51.551-113.648 113.648-113.648h796.705c63.268 0 113.648 51.551 113.648 113.648v171.057c0 63.268-50.38 113.648-113.648 113.648zM967.762 362.471c0-31.634-25.776-57.41-57.41-57.41h-796.705c-31.634 0-57.41 25.776-57.41 57.41v171.057c0 31.634 25.776 57.41 57.41 57.41h796.705c31.634 0 57.41-25.776 57.41-57.41v-171.057zM236.668 539.387c0 8.201-7.030 15.231-15.231 15.231h-30.462c-8.201 0-15.231-7.030-15.231-15.231s7.030-15.231 15.231-15.231v-151.14c-8.201 0-15.231-7.030-15.231-15.231s7.030-15.231 15.231-15.231h30.462c8.201 0 15.231 7.030 15.231 15.231s-7.030 15.231-15.231 15.231v151.14c8.201 0 15.231 5.858 15.231 15.231z" />
<glyph unicode="&#xe90e;" glyph-name="radios" data-tags="radios" d="M512 69.895c-208.085 0-378.105 170.020-378.105 378.105s170.020 378.105 378.105 378.105 378.105-170.020 378.105-378.105v0c0-208.085-170.020-378.105-378.105-378.105v0zM512 920c-261.377 0-472-210.623-472-472s210.623-472 472-472 472 210.623 472 472-210.623 472-472 472zM512 684c-129.417 0-236-106.583-236-236s106.583-236 236-236 236 106.584 236 236-106.584 236-236 236z" />
<glyph unicode="&#xe90f;" glyph-name="stars" data-tags="stars" d="M195.653-32.361c10.728-8.344 22.647-10.728 35.759-8.344s27.415 9.536 42.911 21.455l237.201 174.027 237.201-174.027c15.496-11.92 29.799-19.071 42.911-21.455s25.031 0 35.759 8.344 16.687 19.071 19.071 32.183c2.384 13.112 0 28.607-5.96 46.487l-94.165 278.919 239.584 171.643c15.496 10.728 26.223 22.647 33.375 34.567 5.96 11.92 7.152 23.839 3.576 36.951-4.768 11.92-11.92 21.455-23.839 27.415s-27.415 8.344-46.487 8.344l-293.223-2.384-89.397 280.111c-5.96 17.879-13.112 32.183-22.647 41.719s-20.263 14.304-33.375 14.304-23.839-4.768-33.375-14.304c-9.536-9.536-16.687-23.839-22.647-41.719l-89.397-280.111-293.223 2.384c-19.071 0-34.567-2.384-46.487-8.344s-20.263-15.496-25.031-27.415c-4.768-13.112-3.576-25.031 3.576-36.951 5.96-11.92 17.879-22.647 33.375-34.567l239.584-171.643-94.165-278.919c-5.96-17.879-8.344-33.375-5.96-46.487-1.192-13.112 4.768-23.839 15.496-32.183zM271.939 71.34c0 1.192 0 2.384 0 3.576l89.397 251.504c3.576 9.536 3.576 17.879 1.192 26.223s-7.152 14.304-16.687 20.263l-220.513 150.187c-1.192 1.192-2.384 2.384-1.192 3.576 0 1.192 1.192 1.192 3.576 1.192l267-5.96c9.536 0 17.879 1.192 25.031 5.96s11.92 11.92 14.304 21.455l75.094 255.080c0 2.384 1.192 2.384 2.384 2.384s2.384-1.192 2.384-2.384l75.094-255.080c3.576-9.536 8.344-17.879 14.304-21.455s14.304-5.96 25.031-5.96l265.808 5.96c2.384 0 3.576 0 3.576-1.192s0-2.384-1.192-3.576l-220.513-150.187c-8.344-5.96-14.304-13.112-15.496-20.263-2.384-8.344-1.192-16.687 2.384-26.223l88.205-251.504c0-2.384 0-3.576 0-3.576 0-1.192-1.192 0-3.576 1.192l-210.977 162.107c-8.344 5.96-15.496 9.536-25.031 9.536s-16.687-3.576-25.031-9.536l-210.977-162.107c-1.192-1.192-2.384-1.192-3.576-1.192z" />
<glyph unicode="&#xe910;" glyph-name="photo" data-tags="photo" d="M1000.133 706.342c-15.93 15.93-40.017 23.933-72.339 23.933h-530.305c-31.86 0-55.87-7.926-72.031-23.856-16.084-15.93-24.164-39.709-24.164-71.338v-374.161c0-31.706 8.080-55.485 24.164-71.338 16.084-15.93 40.094-23.856 72.031-23.856h530.305c32.322 0 56.409 8.003 72.339 23.933s23.856 39.709 23.856 71.261v374.161c0 31.552-7.926 55.331-23.856 71.261zM974.661 294.242l-164.148 154.066c-7.080 6.080-14.545 10.697-22.317 14.006s-15.776 4.925-23.933 4.925-16.623-1.462-24.164-4.463c-7.542-3.001-14.93-7.696-22.086-14.16l-138.29-123.669-56.871 51.484c-6.31 5.541-12.929 9.85-19.855 12.929s-14.16 4.54-21.625 4.54c-6.772 0-13.467-1.462-20.009-4.387s-12.929-7.157-19.239-12.698l-91.424-82.805v338.684c0 16.007 4.079 27.935 12.313 35.939s20.009 12.005 35.323 12.005h528.766c15.16 0 26.935-4.002 35.246-12.005s12.467-20.009 12.467-35.939v-338.453zM529.469 590.138c-19.855 0-36.862-7.157-51.022-21.394-14.237-14.237-21.317-31.244-21.317-51.022s7.080-36.862 21.317-51.099c14.237-14.16 31.244-21.317 51.022-21.317s36.785 7.080 50.868 21.317c14.083 14.16 21.163 31.244 21.163 51.099s-7.080 36.785-21.163 51.022c-14.083 14.237-31.013 21.394-50.868 21.394zM150.729 619c16.558-39.973-2.425-85.8-42.398-102.358s-85.8 2.425-102.358 42.398c-16.558 39.973 2.425 85.8 42.398 102.358s85.8-2.425 102.358-42.398zM78.352 385.281c-43.172 0-78.341-35.169-78.341-78.341s35.169-78.341 78.341-78.341 78.341 35.169 78.341 78.341-35.169 78.341-78.341 78.341zM78.352 259.919c-25.934 0-47.020 21.086-47.020 47.020s21.086 47.020 47.020 47.020 47.020-21.086 47.020-47.020-21.086-47.020-47.020-47.020z" />
<glyph unicode="&#xe911;" glyph-name="slider-horizontal" data-tags="slider-horizontal" d="M977.335 494.008h-521.859c-2.629 5.258-5.258 11.831-7.887 17.089-11.831 18.403-26.29 34.177-46.008 44.693-18.403 11.831-40.75 17.089-63.096 17.089-23.661 0-44.693-5.258-63.096-17.089s-34.177-26.29-46.008-44.693c-2.629-5.258-5.258-10.516-7.887-17.089h-177.458c-11.831 0-22.347-3.944-30.234-13.145s-13.145-19.718-13.145-32.863c0-13.145 3.944-23.661 13.145-32.863s18.403-13.145 30.234-13.145h177.458c2.629-5.258 5.258-11.831 7.887-17.089 11.831-18.403 26.29-34.177 46.008-46.008 18.403-11.831 40.75-17.089 63.096-17.089 23.661 0 44.693 5.258 63.096 17.089s34.177 26.29 46.008 46.008c2.629 5.258 6.573 11.831 7.887 17.089h521.859c13.145 0 23.661 3.944 32.863 13.145s13.145 19.718 13.145 32.863c0 13.145-3.944 23.661-13.145 32.863s-19.718 13.145-32.863 13.145zM379.235 407.25c-10.516-10.516-24.976-17.089-40.75-17.089s-28.919 5.258-40.75 17.089c-10.516 10.516-17.089 24.976-17.089 40.75s5.258 30.234 17.089 40.75c10.516 10.516 24.976 15.774 40.75 15.774s30.234-5.258 40.75-15.774c10.516-10.516 15.774-24.976 15.774-40.75s-5.258-28.919-15.774-40.75zM46.665 708.272h523.173c2.629-5.258 5.258-11.831 7.887-17.089 11.831-18.403 26.29-34.177 46.008-46.008 18.403-11.831 40.75-17.089 63.096-17.089 23.661 0 44.693 5.258 63.096 17.089s34.177 26.29 46.008 46.008c2.629 5.258 6.573 11.831 7.887 17.089h176.144c11.831 0 22.347 3.944 31.548 13.145s13.145 19.718 13.145 32.863c0 13.145-3.944 23.661-13.145 32.863s-19.718 13.145-31.548 13.145h-176.144c-2.629 5.258-5.258 11.831-7.887 17.089-11.831 18.403-26.29 34.177-46.008 46.008-18.403 11.831-40.75 17.089-63.096 17.089-23.661 0-44.693-5.258-63.096-17.089s-34.177-26.29-46.008-46.008c-2.629-5.258-6.573-11.831-7.887-17.089h-523.173c-13.145 0-23.661-3.944-32.863-13.145s-13.145-19.718-13.145-32.863c0-13.145 3.944-23.661 13.145-32.863 9.202-7.887 19.718-13.145 32.863-13.145zM646.080 795.029c10.516 10.516 24.976 15.774 40.75 15.774s30.234-5.258 40.75-15.774 15.774-24.976 15.774-40.75c0-15.774-5.258-28.919-15.774-40.75s-24.976-15.774-40.75-15.774c-15.774 0-28.919 5.258-40.75 17.089-10.516 10.516-17.089 24.976-17.089 40.75 1.315 15.774 6.573 28.919 17.089 39.435zM979.964 187.728h-176.144c-2.629 5.258-5.258 11.831-7.887 17.089-11.831 18.403-26.29 34.177-46.008 44.693-18.403 11.831-40.75 17.089-63.096 17.089-23.661 0-44.693-5.258-63.096-17.089s-34.177-26.29-46.008-44.693c-2.629-5.258-5.258-10.516-7.887-17.089h-523.173c-13.145 0-23.661-3.944-32.863-13.145s-13.145-19.718-13.145-32.863c0-13.145 3.944-23.661 13.145-32.863s19.718-13.145 32.863-13.145h523.173c2.629-5.258 5.258-11.831 7.887-17.089 11.831-18.403 26.29-34.177 46.008-46.008 18.403-11.831 40.75-17.089 63.096-17.089 23.661 0 44.693 5.258 63.096 17.089s34.177 26.29 46.008 46.008c2.629 5.258 6.573 11.831 7.887 17.089h176.144c11.831 0 22.347 3.944 31.548 13.145s13.145 19.718 13.145 32.863c0 13.145-3.944 23.661-13.145 32.863-9.202 7.887-19.718 13.145-31.548 13.145zM727.579 100.971c-10.516-10.516-24.976-17.089-40.75-17.089s-28.919 5.258-40.75 17.089c-10.516 10.516-17.089 24.976-17.089 40.75s5.258 30.234 17.089 40.75c10.516 10.516 24.976 15.774 40.75 15.774s30.234-5.258 40.75-15.774 15.774-24.976 15.774-40.75c1.315-15.774-5.258-30.234-15.774-40.75z" />
<glyph unicode="&#xe912;" glyph-name="checkbox" data-tags="checkbox" d="M490.909 638.001l-114.94 115.028 32.435 32.612 82.505-82.505 174.581 174.492 32.435-32.612zM697.924 960.044h-321.955c-25.345 0-45.905-20.383-45.994-45.728 0-0.089 0-0.177 0-0.354v-321.955c0-25.434 20.648-45.994 45.994-45.994h321.955c25.434 0 45.994 20.648 45.994 45.994v321.955c0 25.345-20.56 45.994-45.905 45.994v0zM490.909 28.031l-114.94 115.028 32.435 32.612 82.505-82.505 174.581 174.492 32.435-32.612zM697.924 350.075h-321.955c-25.345 0-45.905-20.383-45.994-45.728 0-0.089 0-0.177 0-0.354v-321.955c0-25.434 20.648-45.994 45.994-45.994h321.955c25.434 0 45.994 20.648 45.994 45.994v321.955c0 25.345-20.56 45.994-45.905 45.994v0z" />
<glyph unicode="&#xe913;" glyph-name="tree" data-tags="tree" d="M569.089 391.168l-0.644 113.921h-341.247v113.534h-113.663v-625.534h455.297v113.663h-341.247v284.416h341.505zM0 960h341.247v-227.584h-341.247v227.584zM682.624 561.792h341.247v-227.584h-341.247v227.584zM682.624 163.584v-227.584h341.376v227.584h-341.376z" />
<glyph unicode="&#xe914;" glyph-name="list" data-tags="list" d="M275.179 960h269.461v-431.114h-269.461v431.114zM275.179 367.114h269.461v-431.114h-269.461v431.114zM570.371 878.28v-53.845h124.486v-551.311h-124.486v-53.845h178.45v659h-178.45z" />
<glyph unicode="&#xe915;" glyph-name="multichoice" data-tags="multichoice" d="M922.415 448c0-48.867-39.614-88.481-88.481-88.481s-88.481 39.614-88.481 88.481c0 48.867 39.614 88.481 88.481 88.481s88.481-39.614 88.481-88.481zM511.319 288.734c-9.529 0-17.696 8.167-17.696 17.696v283.139c0 9.529 8.167 17.696 17.696 17.696s17.696-8.167 17.696-17.696v-283.139c0-9.529-8.167-17.696-17.696-17.696zM64.491 258.106h249.788c21.78 0 37.434 5.445 48.324 16.335s16.335 26.544 16.335 47.644v251.15c0 21.099-5.445 37.434-16.335 47.644s-27.225 16.335-48.324 16.335h-249.788c-21.099 0-37.434-5.445-48.324-16.335s-16.335-26.544-16.335-47.644v-251.15c0-21.099 5.445-37.434 16.335-47.644 10.209-11.571 26.544-16.335 48.324-16.335zM64.491 291.457c-10.209 0-18.377 2.722-23.822 8.167s-8.167 13.612-8.167 24.502v248.427c0 10.89 2.722 18.377 8.167 23.822s13.612 8.167 23.822 8.167h248.427c10.209 0 18.377-2.722 23.822-8.167s8.167-13.612 8.167-23.822v-248.427c0-10.89-2.722-19.057-8.167-24.502s-13.612-8.167-23.822-8.167h-248.427zM166.584 349.99c6.806 0 12.251 3.403 16.335 9.529l93.926 148.376c1.361 2.042 2.042 4.084 3.403 6.126s1.361 4.764 1.361 6.806-2.042 8.167-5.445 10.89-7.487 4.084-11.571 4.084c-5.445 0-10.209-2.722-14.293-8.848l-85.758-136.805-40.837 52.408c-2.722 3.403-4.764 5.445-7.487 6.806s-4.764 2.042-8.167 2.042c-4.764 0-8.167-1.361-11.571-4.764s-4.764-6.806-4.764-11.571c0-4.084 1.361-8.848 4.764-12.932l50.366-61.937c2.722-3.403 5.445-6.126 8.167-7.487 4.764-2.042 8.167-2.722 11.571-2.722zM833.934 258.106c-104.816 0-189.894 85.078-189.894 189.894s85.078 189.894 189.894 189.894 189.894-85.078 189.894-189.894c0.681-104.816-85.078-189.894-189.894-189.894zM833.934 606.585c-87.12 0-158.585-70.785-158.585-158.585s70.785-158.585 158.585-158.585 158.585 70.785 158.585 158.585-70.785 158.585-158.585 158.585z" />
<glyph unicode="&#xe916;" glyph-name="arrow-reload" data-tags="arrow.reload" d="M826.416 237.138c-10.506 9.005-24.013 13.507-38.27 12.006s-27.014-8.254-36.019-18.76c-30.016-33.017-65.285-60.032-106.556-78.041-42.022-19.51-88.547-29.265-134.321-29.265-39.771 0-78.792 6.754-116.312 21.011-36.019 14.258-69.037 33.768-98.302 60.032-28.515 25.514-52.528 55.529-71.288 89.297-16.509 29.265-27.014 61.533-33.017 94.55h43.523c26.264 0 36.769 12.006 41.272 22.512l0.75 1.501c4.502 15.008 1.501 32.267-9.005 44.273l-92.299 130.569c-7.504 12.757-20.261 20.261-35.269 21.011h-1.501c-15.008-0.75-27.765-9.005-35.269-21.011l-93.049-130.569c-10.506-12.006-14.258-29.265-9.755-44.273l0.75-0.75c3.752-10.506 14.258-22.512 41.272-22.512h43.523c6.754-48.025 21.011-93.8 43.523-135.822 48.776-92.299 128.318-164.337 225.119-202.607 49.526-19.51 102.054-30.016 155.332-29.265 1.501 0 2.251 0 3.752 0 59.281 0 119.313 13.507 172.591 38.27s99.803 60.032 138.823 104.305c10.506 10.506 16.509 24.763 15.758 39.771 1.501 12.006-5.253 25.514-15.758 33.768zM1021.52 484.769l-0.75 0.75c-4.502 10.506-15.008 22.512-41.272 22.512h-43.523c-6.754 48.025-21.011 93.8-43.523 135.822-48.776 92.299-128.318 164.337-225.119 202.607-49.526 19.51-102.054 30.016-155.332 29.265-60.032 0.75-120.814-12.757-175.593-38.27-53.278-24.763-100.553-59.281-139.574-102.804-10.506-10.506-16.509-24.763-16.509-39.021s6.754-27.765 17.259-36.019c10.506-9.005 24.013-13.507 37.52-12.006 14.258 1.501 27.014 8.254 36.019 18.76 30.016 33.017 66.035 59.281 106.556 78.041 41.272 19.51 87.796 29.265 133.571 29.265 39.771 0 79.542-6.754 117.062-21.762 36.019-14.258 69.037-33.768 98.302-59.281 28.515-25.514 52.528-55.529 70.537-89.297 15.758-30.016 27.014-61.533 33.017-94.55h-44.273c-26.264 0-36.769-12.006-41.272-22.512v-0.75c-5.253-15.758-1.501-32.267 9.005-44.273l92.299-131.32c7.504-12.757 21.011-20.261 35.269-21.011h1.501c15.008 0.75 27.765 8.254 36.019 21.011l93.049 130.569c11.256 11.256 15.008 28.515 9.755 44.273z" />
<glyph unicode="&#xe917;" glyph-name="doc-badge-plus" data-tags="doc.badge.plus" d="M188.963 439.902c12.598 1.8 24.295 1.8 35.093 1.8 6.299 0 11.698 0 17.996-0.9 5.399-0.9 11.698-0.9 17.996-1.8v382.425c0 21.596 5.399 38.692 17.097 50.39s28.794 17.996 52.19 17.996h195.262v-255.55c0-27.895 7.199-48.591 20.696-62.088s34.193-20.696 62.088-20.696h250.151v-394.123c0-21.596-5.399-38.692-17.097-50.39s-28.794-17.996-51.29-17.996h-291.543c-2.699-12.598-7.199-24.295-11.698-36.893-4.499-11.698-10.798-23.395-16.197-34.193h321.237c44.991 0 79.185 11.698 102.58 35.093 22.496 23.395 34.193 57.589 34.193 103.48v398.622c0 27.895-2.699 50.39-8.098 65.687-5.399 16.197-16.197 32.394-34.193 50.39l-242.053 247.452c-17.097 17.097-33.294 27.895-49.49 33.294s-35.993 8.098-61.188 8.098h-207.859c-44.991 0-79.185-11.698-101.68-35.093s-34.193-57.589-34.193-103.48v-381.526zM590.285 642.362v233.055l252.851-258.25h-228.555c-16.197 0.9-24.295 8.998-24.295 25.195zM224.056-64c40.492 0 77.385 9.898 111.578 30.594s61.188 47.691 81.884 80.984c20.696 34.193 30.594 71.086 30.594 111.578 0 41.392-9.898 78.285-30.594 112.478s-47.691 60.288-80.984 80.984-71.086 30.594-112.478 30.594c-40.492 0-77.385-9.898-111.578-30.594s-61.188-46.791-80.984-80.984c-20.696-34.193-30.594-71.086-30.594-112.478s9.898-78.285 30.594-112.478c20.696-34.193 47.691-60.288 80.984-80.984 34.193-19.796 71.086-29.694 111.578-29.694zM224.056 18.784c-8.098 0-15.297 2.699-19.796 7.199-4.499 5.399-7.199 11.698-7.199 19.796v85.483h-85.483c-8.098 0-14.397 2.699-19.796 7.199-4.499 5.399-7.199 11.698-7.199 19.796s2.699 14.397 7.199 19.796 11.698 7.199 19.796 7.199h85.483v85.483c0 8.098 2.699 14.397 7.199 19.796s11.698 7.199 19.796 7.199c8.098 0 14.397-2.699 18.896-7.199s7.199-11.698 7.199-19.796v-85.483h85.483c8.098 0 14.397-2.699 19.796-7.199 4.499-5.399 7.199-11.698 7.199-19.796s-2.699-14.397-7.199-19.796c-4.499-5.399-11.698-7.199-19.796-7.199h-85.483v-85.483c0-8.098-2.699-14.397-7.199-19.796-4.499-4.499-10.798-7.199-18.896-7.199z" />
<glyph unicode="&#xe918;" glyph-name="link-badge-plus" data-tags="link.badge.plus" d="M79.037 66.026c34.644-34.644 73.73-58.629 115.48-70.177s84.39-11.548 126.14 0c41.751 11.548 79.948 34.644 114.592 69.288l93.273 94.161c-2.665 16.878-4.442 34.644-3.553 52.41 0 17.766 2.665 35.532 7.106 53.299-2.665-4.442-6.218-7.995-9.771-12.436s-7.106-7.995-11.548-12.436l-121.699-121.699c-25.761-25.761-53.299-41.751-83.501-50.634-30.203-7.995-60.405-7.995-91.496 0-30.203 7.995-58.629 24.873-83.501 49.745-24.873 25.761-41.751 53.299-50.634 84.39-7.995 30.203-8.883 60.405 0 91.496 7.995 30.203 24.873 57.74 50.634 82.613l85.278 85.278c-6.218 14.213-9.771 28.426-11.548 43.527s-1.777 30.203 0.888 44.416l-127.028-127.028c-34.644-34.644-57.74-72.841-69.288-114.592s-11.548-84.39 0-126.14 35.532-80.836 70.177-115.48zM407.712 567.922c28.426-2.665 52.41-7.995 71.953-15.99s36.421-19.543 50.634-34.644c20.431-20.431 35.532-43.527 44.416-68.4s11.548-48.857 8.883-73.73c18.655 30.203 41.751 55.075 70.177 74.618-11.548 44.416-35.532 84.39-71.065 119.922-14.213 13.325-30.203 24.873-48.857 34.644s-41.751 16.878-69.288 21.319l-56.852-57.74zM337.536 325.413c12.436-12.436 26.649-23.096 43.527-32.867s37.309-16.878 61.293-23.096c8.883 9.771 17.766 18.655 27.538 29.314 8.883 9.771 17.766 19.543 27.538 29.314-23.984 3.553-44.416 9.771-62.182 18.655-16.878 7.995-31.979 18.655-44.416 31.979-24.873 24.873-41.751 53.299-50.634 83.501s-8.883 61.293 0 91.496 24.873 57.74 49.745 82.613l142.13 141.241c24.873 25.761 52.41 41.751 83.501 50.634 30.203 7.995 61.293 7.995 91.496 0s58.629-24.873 83.501-49.745c24.873-25.761 41.751-53.299 50.634-84.39s7.995-61.293 0-91.496c-8.883-30.203-24.873-57.74-50.634-82.613l-31.979-31.979c15.101 3.553 31.979 5.33 49.745 6.218s33.756 0 48.857-3.553l11.548 12.436c25.761 32.867 42.639 68.4 48.857 106.597 7.106 38.197 4.442 77.283-7.995 115.48s-34.644 73.73-66.623 104.821c-34.644 35.532-73.73 58.629-115.48 70.177s-84.39 11.548-126.14 0-79.948-34.644-114.592-69.288l-148.348-148.348c-34.644-34.644-57.74-72.841-69.288-114.592s-11.548-83.501 0-126.14 32.867-81.725 68.4-116.369zM803.011-3.262c39.974 0 76.395 9.771 110.151 30.203s60.405 47.080 80.836 79.948 30.203 70.177 30.203 110.151c0 40.862-9.771 77.283-30.203 111.039s-47.080 59.517-79.948 79.948c-33.756 19.543-70.177 30.203-111.039 30.203-39.974 0-76.395-9.771-110.151-30.203-33.756-19.543-60.405-46.192-79.948-79.948-20.431-33.756-30.203-70.177-30.203-111.039s9.771-77.283 30.203-111.039c20.431-33.756 47.080-59.517 79.948-79.948 32.867-19.543 70.177-29.314 110.151-29.314zM803.011 78.463c-7.995 0-15.101 2.665-19.543 7.106-4.442 5.33-7.106 11.548-7.106 19.543v84.39h-84.39c-7.995 0-14.213 2.665-19.543 7.106s-7.106 11.548-7.106 19.543 2.665 14.213 7.106 19.543c4.442 5.33 11.548 7.106 19.543 7.106h84.39v84.39c0 7.995 2.665 14.213 7.106 19.543s11.548 7.106 19.543 7.106c7.995 0 14.213-2.665 18.655-7.106s7.106-11.548 7.106-19.543v-84.39h84.39c7.995 0 14.213-2.665 19.543-7.106 4.442-5.33 7.106-11.548 7.106-19.543s-2.665-14.213-7.106-19.543-11.548-7.106-19.543-7.106h-84.39v-84.39c0-7.995-2.665-14.213-7.106-19.543-4.442-4.442-10.66-7.106-18.655-7.106z" />
<glyph unicode="&#xe919;" glyph-name="film" data-tags="film" d="M87.988 47.652h847.847c26.69 0 48.042 8.007 64.056 24.021s24.021 36.476 24.021 63.166v626.321c0 25.8-8.007 47.152-24.021 63.166s-37.366 24.021-64.056 24.021h-847.847c-26.69 0-48.042-8.007-64.056-24.021s-24.021-36.476-24.021-63.166v-626.321c0-25.8 8.007-47.152 24.021-63.166s37.366-24.021 64.056-24.021zM88.877 117.936c-15.124 0-23.131 7.117-23.131 22.242v48.931c0 6.228 1.779 11.566 6.228 15.124 3.559 3.559 8.897 6.228 15.124 6.228h56.049c6.228 0 11.566-1.779 15.124-6.228 3.559-3.559 5.338-8.897 5.338-15.124v-49.821c0-14.235-7.117-21.352-20.462-21.352h-54.269zM87.098 261.171c-6.228 0-11.566 1.779-15.124 6.228s-6.228 8.897-6.228 14.235v49.821c0 14.235 7.117 21.352 21.352 21.352h56.049c14.235 0 20.462-7.117 20.462-21.352v-49.821c0-5.338-1.779-10.676-5.338-14.235-3.559-4.448-8.897-6.228-15.124-6.228h-56.049zM87.098 402.627c-6.228 0-11.566 1.779-15.124 6.228-3.559 3.559-6.228 8.897-6.228 14.235v49.821c0 14.235 7.117 21.352 21.352 21.352h56.049c14.235 0 20.462-7.117 20.462-21.352v-49.821c0-5.338-1.779-10.676-5.338-14.235s-8.897-6.228-15.124-6.228h-56.049zM87.098 541.414c-6.228 0-11.566 1.779-15.124 6.228s-6.228 8.897-6.228 14.235v49.821c0 14.235 7.117 21.352 21.352 21.352h56.049c14.235 0 20.462-7.117 20.462-21.352v-49.821c0-5.338-1.779-9.786-5.338-14.235s-8.897-6.228-15.124-6.228h-56.049zM87.098 685.54c-6.228 0-11.566 1.779-15.124 6.228-3.559 3.559-6.228 8.897-6.228 14.235v49.821c0 15.124 8.007 22.242 23.131 22.242h54.269c14.235 0 20.462-7.117 20.462-21.352v-50.711c0-5.338-1.779-10.676-5.338-14.235s-8.897-6.228-15.124-6.228h-56.049zM245.458 117.936c-6.228 0-11.566 1.779-15.124 5.338s-5.338 8.897-5.338 15.124v253.553c0 6.228 1.779 11.566 5.338 15.124s8.897 5.338 15.124 5.338h532.907c6.228 0 11.566-1.779 15.124-5.338s5.338-8.897 5.338-15.124v-253.553c0-6.228-1.779-11.566-5.338-15.124s-8.897-5.338-15.124-5.338h-532.907zM245.458 482.697c-6.228 0-11.566 1.779-15.124 5.338s-5.338 8.897-5.338 15.124v254.443c0 6.228 1.779 11.566 5.338 15.124s8.897 5.338 15.124 5.338h532.907c6.228 0 11.566-1.779 15.124-5.338s5.338-8.007 5.338-15.124v-254.443c0-6.228-1.779-11.566-5.338-15.124s-8.897-5.338-15.124-5.338h-532.907zM880.676 117.936c-14.235 0-20.462 7.117-20.462 21.352v49.821c0 6.228 1.779 11.566 6.228 15.124 3.559 3.559 8.897 6.228 15.124 6.228h56.049c6.228 0 11.566-1.779 15.124-6.228s6.228-8.897 6.228-15.124v-48.931c0-15.124-8.007-22.242-23.131-22.242h-55.159zM880.676 261.171c-6.228 0-10.676 1.779-15.124 6.228-3.559 4.448-6.228 8.897-6.228 14.235v49.821c0 14.235 7.117 21.352 20.462 21.352h56.049c14.235 0 21.352-7.117 21.352-21.352v-49.821c0-5.338-1.779-10.676-6.228-14.235-3.559-4.448-8.897-6.228-15.124-6.228h-55.159zM880.676 402.627c-6.228 0-10.676 1.779-15.124 6.228-3.559 3.559-6.228 8.897-6.228 14.235v49.821c0 14.235 7.117 21.352 20.462 21.352h56.049c14.235 0 21.352-7.117 21.352-21.352v-49.821c0-5.338-1.779-10.676-6.228-14.235-3.559-3.559-8.897-6.228-15.124-6.228h-55.159zM880.676 541.414c-6.228 0-10.676 1.779-15.124 6.228-3.559 4.448-6.228 8.897-6.228 14.235v49.821c0 14.235 7.117 21.352 20.462 21.352h56.049c14.235 0 21.352-7.117 21.352-21.352v-49.821c0-5.338-1.779-9.786-6.228-14.235-3.559-4.448-8.897-6.228-15.124-6.228h-55.159zM880.676 685.54c-6.228 0-10.676 1.779-15.124 6.228-3.559 3.559-6.228 8.897-6.228 14.235v50.711c0 14.235 7.117 21.352 20.462 21.352h55.159c15.124 0 23.131-7.117 23.131-22.242v-49.821c0-5.338-1.779-10.676-6.228-14.235-3.559-3.559-8.897-6.228-15.124-6.228h-56.049z" />
<glyph unicode="&#xe91a;" glyph-name="map-pin-and-ellipse" data-tags="mappin.and.ellipse" d="M336.88 783.925c0-41.036 12.406-77.301 37.219-107.84s56.306-51.534 94.479-62.032v-294.889c0-45.808 1.909-84.936 6.68-116.429s10.498-55.351 17.178-71.575c6.68-16.224 13.361-23.858 19.087-23.858s12.406 7.635 19.087 23.858c6.68 16.224 12.406 40.082 17.178 71.575s6.68 70.621 6.68 116.429v294.889c38.173 9.543 69.666 30.539 94.479 62.032s37.219 67.758 37.219 108.794c0 32.447-7.635 61.077-23.858 87.799-15.269 26.721-36.265 47.717-62.986 63.94s-56.306 23.858-87.799 23.858c-32.447 0-62.032-7.635-88.753-23.858s-47.717-37.219-62.986-63.94-22.904-56.306-22.904-88.753zM461.897 774.382c-16.224 0-29.584 5.726-41.991 18.132s-18.132 25.767-18.132 41.991c0 16.224 5.726 29.584 18.132 41.991 12.406 11.452 25.767 18.132 41.991 18.132s30.539-5.726 41.991-18.132c11.452-11.452 17.178-25.767 17.178-41.991s-5.726-30.539-17.178-41.991c-11.452-11.452-25.767-18.132-41.991-18.132zM511.523-63.523c93.525 0 173.689 9.543 239.538 28.63s116.429 43.899 150.785 74.438c34.356 30.539 52.488 62.986 52.488 96.388 0 30.539-10.498 58.214-31.493 83.027s-48.671 44.854-82.073 62.986c-33.402 17.178-68.712 30.539-105.931 40.082s-71.575 14.315-104.022 14.315v-68.712c21.95 0 46.762-3.817 73.484-9.543s51.534-14.315 75.392-24.813c23.858-10.498 42.945-22.904 58.214-37.219s22.904-30.539 22.904-47.717c0-26.721-15.269-50.58-44.854-70.621-30.539-20.995-71.575-36.265-124.063-48.671-52.488-11.452-111.657-17.178-178.46-17.178s-126.926 5.726-179.415 17.178-93.525 27.676-124.063 47.717c-30.539 20.995-44.854 44.854-44.854 71.575 0 18.132 7.635 33.402 22.904 47.717s34.356 26.721 58.214 37.219c23.858 10.498 48.671 19.087 75.392 24.813s50.58 9.543 72.529 9.543v68.712c-31.493 0-66.803-5.726-104.022-14.315-37.219-9.543-72.529-22.904-105.931-40.082s-60.123-38.173-82.073-62.986c-20.995-24.813-31.493-51.534-31.493-83.027 0-34.356 17.178-65.849 52.488-96.388 34.356-30.539 84.936-55.351 150.785-74.438 64.895-19.087 144.104-28.63 237.629-28.63z" />
<glyph unicode="&#xe91b;" glyph-name="ruler" data-tags="ruler" d="M959.21 383.21h-894.42c-34.765 0-64.79 28.444-64.79 64.79s28.444 64.79 64.79 64.79h894.42c34.765 0 64.79-28.444 64.79-64.79s-30.025-64.79-64.79-64.79z" />
<glyph unicode="&#xe91c;" glyph-name="doc" data-tags="doc" d="M260.168-64.622h503.912c51.013 0 89.584 12.442 114.469 38.571s38.571 64.7 38.571 115.713v423.038c0 33.594-2.488 59.723-8.71 78.386s-19.908 38.571-39.815 60.967l-252.578 257.555c-19.908 19.908-39.815 33.594-58.479 39.815s-43.548 9.954-72.165 9.954h-225.205c-51.013 0-89.584-12.442-114.469-38.571s-38.571-64.7-38.571-115.713v-714.187c0-52.258 12.442-90.829 38.571-116.957 24.885-24.885 63.456-38.571 114.469-38.571zM263.901 23.718c-22.396 0-39.815 6.221-52.258 17.419s-17.419 28.617-17.419 51.013v711.699c0 22.396 6.221 38.571 17.419 51.013s28.617 17.419 52.258 17.419h205.298v-269.998c0-31.106 7.465-55.99 23.64-70.921 16.175-16.175 39.815-23.64 70.921-23.64h263.776v-414.328c0-22.396-6.221-38.571-17.419-51.013s-28.617-17.419-52.258-17.419h-493.959zM574.958 588.598c-16.175 0-24.885 8.71-24.885 24.885v242.625l261.288-267.509h-236.403z" />
<glyph unicode="&#xe91d;" glyph-name="waveform" data-tags="waveform" d="M95.285 337.469c12.705 0 24.139 3.811 31.762 12.705 8.893 8.893 12.705 19.057 12.705 31.762v130.859c0 12.705-3.811 22.868-12.705 31.762s-19.057 12.705-31.762 12.705c-12.705 0-22.868-3.811-31.762-12.705s-12.705-19.057-12.705-31.762v-130.859c0-12.705 3.811-22.868 12.705-31.762 8.893-7.623 19.057-12.705 31.762-12.705zM261.717 131.653c12.705 0 24.139 3.811 31.762 12.705 8.893 8.893 12.705 19.057 12.705 31.762v542.491c0 12.705-3.811 22.868-12.705 31.762s-19.057 13.975-31.762 13.975-22.868-5.082-31.762-13.975c-8.893-8.893-12.705-20.328-12.705-31.762v-542.491c0-12.705 3.811-22.868 12.705-31.762s19.057-12.705 31.762-12.705zM428.149-65.27c12.705 0 24.139 3.811 31.762 12.705 8.893 8.893 12.705 19.057 12.705 31.762v935.067c0 12.705-3.811 22.868-12.705 31.762s-19.057 12.705-31.762 12.705c-12.705 0-22.868-3.811-31.762-12.705s-12.705-19.057-12.705-31.762v-935.067c0-12.705 3.811-22.868 12.705-31.762 8.893-7.623 19.057-12.705 31.762-12.705zM594.581 195.176c12.705 0 22.868 3.811 31.762 12.705s12.705 19.057 12.705 31.762v417.985c0 12.705-3.811 22.868-12.705 31.762s-19.057 12.705-31.762 12.705-22.868-3.811-31.762-12.705c-8.893-8.893-12.705-19.057-12.705-31.762v-417.985c0-12.705 3.811-22.868 12.705-31.762s19.057-12.705 31.762-12.705zM762.283 37.638c12.705 0 22.868 3.811 31.762 12.705s12.705 19.057 12.705 31.762v731.792c0 12.705-3.811 22.868-12.705 31.762s-19.057 12.705-31.762 12.705c-12.705 0-22.868-3.811-31.762-12.705s-12.705-19.057-12.705-31.762v-731.792c0-12.705 3.811-22.868 12.705-31.762s19.057-12.705 31.762-12.705zM928.715 298.084c12.705 0 22.868 3.811 31.762 12.705s12.705 19.057 12.705 31.762v210.898c0 12.705-3.811 22.868-12.705 31.762s-19.057 12.705-31.762 12.705-22.868-3.811-31.762-12.705c-8.893-8.893-12.705-19.057-12.705-31.762v-210.898c0-12.705 3.811-22.868 12.705-31.762 7.623-8.893 19.057-12.705 31.762-12.705z" />
<glyph unicode="&#xe91e;" glyph-name="photo-output" data-tags="photo.output" d="M324.38 445.74c28.256 0 51.991 10.172 71.205 30.517 20.344 20.344 29.386 44.079 29.386 72.336s-10.172 51.991-29.386 72.336c-20.344 20.344-44.079 30.517-71.205 30.517-28.256 0-51.991-10.172-72.336-30.517s-30.517-44.079-30.517-72.336c0-28.256 10.172-51.991 30.517-72.336 20.344-21.475 44.079-30.517 72.336-30.517zM988.962 815.329c-23.735 23.735-58.773 35.038-106.243 35.038h-741.439c-46.34 0-81.377-11.302-105.113-35.038s-35.038-57.642-35.038-103.982v-526.693c0-46.34 11.302-81.377 35.038-103.982 23.735-23.735 58.773-35.038 105.113-35.038h742.57c47.47 0 82.508 11.302 106.243 35.038s35.038 57.642 35.038 103.982v526.693c-1.13 46.34-12.433 81.377-36.168 103.982zM96.071 754.296c11.302 10.172 25.996 15.823 46.34 15.823h740.309c20.344 0 35.038-5.651 46.34-15.823s15.823-25.996 15.823-47.47v-465.66l-226.049 213.616c-9.042 7.912-20.344 14.693-30.517 19.214-11.302 4.521-22.605 6.781-32.777 6.781-11.302 0-22.605-2.26-33.907-5.651-10.172-4.521-21.475-10.172-30.517-19.214l-194.402-174.057-79.117 71.205c-9.042 7.912-18.084 13.563-28.256 18.084s-20.344 6.781-30.517 6.781c-9.042 0-18.084-2.26-28.256-5.651-9.042-4.521-18.084-10.172-27.126-18.084l-123.196-110.764v463.4c-1.13 21.475 4.521 37.298 15.823 47.47z" />
<glyph unicode="&#xe91f;" glyph-name="textfield-checkmark" data-tags="textfield.checkmark" d="M910.352 647.176h-796.705c-63.268 0-113.648-51.551-113.648-113.648v-171.057c0-63.268 51.551-113.648 113.648-113.648h796.705c63.268 0 113.648 51.551 113.648 113.648v171.057c0 63.268-50.38 113.648-113.648 113.648zM967.762 362.471c0-31.634-25.776-57.41-57.41-57.41h-796.705c-31.634 0-57.41 25.776-57.41 57.41v171.057c0 31.634 25.776 57.41 57.41 57.41h796.705c31.634 0 57.41-25.776 57.41-57.41v-171.057zM590.499 547.588c-4.686 0-9.373-1.172-12.888-3.515s-7.030-5.858-10.545-10.545l-77.327-119.506-37.492 42.178c-4.686 5.858-11.716 9.373-19.918 9.373-7.030 0-14.059-2.343-18.746-7.030s-7.030-10.545-7.030-18.746c0-3.515 0-7.030 1.172-9.373s3.515-5.858 5.858-9.373l55.066-62.096c5.858-7.030 12.888-9.373 22.261-9.373 10.545 0 18.746 3.515 23.432 11.716l97.245 144.11c2.343 2.343 3.515 5.858 4.686 8.201s1.172 4.686 1.172 8.201c0 7.030-2.343 14.059-8.201 18.746s-10.545 7.030-18.746 7.030z" />
<glyph unicode="&#xe920;" glyph-name="photo-on-rectangle-angled" data-tags="photo.on.rectangle.angled" d="M991.941 621.485c-21.815 20.777-54.019 32.204-96.611 32.204h-88.301l-19.738 111.155c-7.272 41.553-23.893 71.679-48.825 88.301s-58.175 21.815-100.767 14.544l-528.766-93.495c-42.592-7.272-72.718-23.893-90.378-47.786-17.66-24.932-22.854-58.175-14.544-99.728l64.408-367.747c7.272-41.553 23.893-70.641 47.786-88.301 24.932-16.621 58.175-21.815 100.767-14.544l10.388 2.078v-6.233c0-42.592 10.388-74.796 32.204-95.573s54.019-32.204 97.65-32.204h538.115c42.592 0 74.796 10.388 96.611 32.204s32.204 52.98 32.204 95.573v373.98c0 42.592-10.388 73.757-32.204 95.573zM935.844 565.388c10.388-9.349 14.544-23.893 14.544-43.631v-302.3l-143.359 136.087c-7.272 7.272-15.582 12.466-24.932 15.582s-18.699 5.194-27.010 5.194c-9.349 0-18.699-2.078-28.048-5.194-8.311-3.116-16.621-8.311-24.932-15.582l-158.941-142.32-64.408 58.175c-7.272 7.272-15.582 11.427-23.893 14.544s-16.621 5.194-23.893 5.194c-7.272 0-14.544-2.078-22.854-5.194s-15.582-8.311-22.854-14.544l-83.107-71.679v322.038c0 19.738 5.194 34.281 14.544 43.631s23.893 14.544 42.592 14.544h536.038c16.621 0 31.165-5.194 40.514-14.544zM205.544 228.806c-37.398-6.233-59.213 9.349-66.485 46.747l-63.369 359.436c-3.116 18.699-1.039 34.281 7.272 45.709s20.777 18.699 39.476 21.815l526.688 92.456c17.66 3.116 32.204 1.039 43.631-7.272s18.699-21.815 21.815-40.514l16.621-94.534h-373.98c-43.631 0-75.835-10.388-97.65-32.204-21.815-20.777-32.204-52.98-32.204-95.573v-293.99l-21.815-2.078zM512 346.194c22.854 0 42.592 8.311 59.213 24.932s24.932 36.359 24.932 60.252c0 22.854-8.311 42.592-24.932 59.213s-36.359 24.932-59.213 24.932c-22.854 0-43.631-8.311-59.213-24.932-16.621-16.621-24.932-36.359-24.932-59.213s8.311-43.631 24.932-60.252c16.621-16.621 36.359-24.932 59.213-24.932z" />
<glyph unicode="&#xe921;" glyph-name="list-number" data-tags="list.number" d="M323.237 695.127h654.624c13.145 0 23.661 3.944 32.863 13.145s13.145 19.718 13.145 32.863-3.944 23.661-13.145 32.863c-9.202 9.202-19.718 13.145-32.863 13.145h-654.624c-13.145 0-23.661-3.944-32.863-13.145s-13.145-19.718-13.145-32.863 3.944-23.661 13.145-32.863c9.202-9.202 19.718-13.145 32.863-13.145zM323.237 388.847h654.624c13.145 0 23.661 3.944 32.863 13.145s13.145 19.718 13.145 32.863-3.944 23.661-13.145 32.863-19.718 13.145-32.863 13.145h-654.624c-13.145 0-23.661-3.944-32.863-13.145s-13.145-19.718-13.145-32.863 3.944-23.661 13.145-32.863c9.202-9.202 19.718-13.145 32.863-13.145zM323.237 82.567h654.624c13.145 0 23.661 3.944 32.863 13.145s13.145 19.718 13.145 32.863c0 13.145-3.944 23.661-13.145 32.863s-19.718 13.145-32.863 13.145h-654.624c-13.145 0-23.661-3.944-32.863-13.145s-13.145-19.718-13.145-32.863c0-13.145 3.944-23.661 13.145-32.863s19.718-13.145 32.863-13.145zM114.231 641.232c10.516 0 18.403 2.629 24.976 9.202 6.573 5.258 9.202 14.46 9.202 27.605v161.684c0 11.831-3.944 21.032-10.516 27.605-7.887 6.573-17.089 10.516-27.605 10.516-9.202 0-17.089-1.315-23.661-3.944s-13.145-6.573-19.718-10.516l-35.492-24.976c-10.516-7.887-15.774-15.774-15.774-24.976 0-6.573 2.629-11.831 6.573-17.089 5.258-3.944 10.516-6.573 15.774-6.573 2.629 0 5.258 0 7.887 1.315s5.258 2.629 10.516 5.258l22.347 14.46v-132.765c0-11.831 3.944-21.032 10.516-27.605 5.258-6.573 14.46-9.202 24.976-9.202zM31.417 334.953h131.451c7.887 0 13.145 2.629 18.403 6.573s7.887 10.516 7.887 18.403c0 7.887-2.629 14.46-7.887 19.718s-11.831 6.573-18.403 6.573h-69.669v1.315l39.435 30.234c17.089 13.145 30.234 26.29 38.121 36.806s11.831 23.661 11.831 39.435c0 21.032-7.887 36.806-24.976 49.951s-39.435 19.718-67.040 19.718c-24.976 0-44.693-5.258-61.782-17.089s-23.661-24.976-23.661-42.064c0-17.089 10.516-26.29 30.234-26.29 11.831 0 21.032 5.258 27.605 15.774 7.887 11.831 17.089 17.089 28.919 17.089 6.573 0 13.145-2.629 17.089-6.573s6.573-9.202 6.573-15.774c0-5.258-2.629-11.831-6.573-17.089-3.944-6.573-13.145-14.46-26.29-24.976l-67.040-52.58c-9.202-9.202-14.46-18.403-14.46-30.234 0-9.202 2.629-15.774 7.887-21.032s13.145-7.887 22.347-7.887zM91.884 19.471c31.548 0 55.209 6.573 72.298 18.403s26.29 30.234 26.29 51.266c0 14.46-5.258 26.29-14.46 34.177s-23.661 14.46-40.75 15.774v1.315c11.831 2.629 23.661 7.887 32.863 15.774s13.145 19.718 13.145 35.492c0 19.718-9.202 35.492-26.29 46.008s-39.435 15.774-64.411 15.774c-19.718 0-39.435-3.944-57.838-13.145s-27.605-22.347-27.605-39.435c0-17.089 9.202-26.29 27.605-26.29 6.573 0 10.516 1.315 13.145 2.629 2.629 2.629 6.573 5.258 10.516 9.202 10.516 10.516 21.032 15.774 32.863 15.774 7.887 0 13.145-1.315 18.403-5.258s7.887-9.202 7.887-15.774c0-13.145-10.516-21.032-30.234-21.032h-5.258c-15.774 0-24.976-7.887-24.976-22.347 0-15.774 7.887-23.661 24.976-23.661h5.258c22.347 0 32.863-6.573 32.863-21.032 0-6.573-2.629-11.831-7.887-15.774s-11.831-6.573-19.718-6.573c-9.202 0-17.089 2.629-22.347 6.573-6.573 3.944-11.831 7.887-17.089 11.831-2.629 2.629-6.573 5.258-9.202 6.573s-6.573 2.629-11.831 2.629c-9.202 0-15.774-2.629-22.347-6.573s-7.887-11.831-7.887-19.718c0-17.089 10.516-31.548 30.234-40.75s40.75-11.831 61.782-11.831z" />
<glyph unicode="&#xe922;" glyph-name="image-annotation" data-tags="image.annotation" d="M680.539 350.111c17.875 29.792 26.387 62.138 26.387 98.74 0 35.751-8.512 68.096-26.387 97.037-17.875 29.792-40.858 52.775-70.65 70.65s-62.138 26.387-97.037 26.387c-35.751 0-68.948-8.512-98.74-26.387s-53.626-40.858-71.501-70.65-26.387-62.138-26.387-97.037c0-35.751 8.512-68.948 26.387-98.74s41.709-53.626 71.501-71.501c29.792-17.875 62.138-26.387 98.74-26.387 35.751 0 68.096 8.512 97.037 26.387 29.792 18.727 52.775 41.709 70.65 71.501zM989.526 803.804c-22.983 22.983-54.477 34.048-95.335 34.048h-19.578v-87.674h68.096v-57.031h81.716v15.322c-0.851 40.858-12.768 72.352-34.899 95.335zM34.474 803.804c-22.983-22.983-34.048-54.477-34.048-95.335v-15.322h81.716v57.031h68.096v87.674h-19.578c-40.858 0-73.204-11.066-96.186-34.048zM941.859 145.822h-68.096v-87.674h19.578c40.858 0 72.352 11.066 95.335 34.048s34.048 54.477 34.048 95.335v15.322h-81.716v-57.031zM82.141 202.853h-81.716v-15.322c0-40.858 11.066-72.352 34.048-95.335s54.477-34.048 95.335-34.048h19.578v87.674h-68.096v57.031zM231.953 837.852h123.425v-87.674h-123.425v87.674zM449.862 837.852h123.425v-87.674h-123.425v87.674zM0.426 615.687h81.716v-123.425h-81.716v123.425zM0.426 403.737h81.716v-123.425h-81.716v123.425zM941.859 615.687h81.716v-123.425h-81.716v123.425zM941.859 403.737h81.716v-123.425h-81.716v123.425zM668.622 837.852h123.425v-87.674h-123.425v87.674zM231.953 145.822h123.425v-87.674h-123.425v87.674zM449.862 145.822h123.425v-87.674h-123.425v87.674zM668.622 145.822h123.425v-87.674h-123.425v87.674z" />
<glyph unicode="&#xe923;" glyph-name="link" data-tags="link" d="M534.624 646.576l-71.132-73.108c28.65-3.952 52.361-10.867 72.12-19.759s35.566-20.747 49.397-34.578c26.674-26.674 45.445-57.301 54.337-89.903s8.891-65.204 0-97.806c-8.891-32.602-26.674-62.24-53.349-88.915l-155.107-155.107c-26.674-26.674-57.301-45.445-88.915-54.337-32.602-8.891-65.204-8.891-97.806 0s-62.24 26.674-89.903 54.337c-26.674 27.662-45.445 57.301-54.337 89.903s-8.891 65.204 0 97.806c8.891 32.602 26.674 62.24 54.337 88.915l81.999 81.999c-7.904 17.783-12.843 36.554-14.819 55.325s-1.976 36.554 0 54.337l-132.384-132.384c-39.518-38.53-65.204-81.999-78.047-128.432-12.843-47.421-12.843-93.854 0-141.275s39.518-89.903 79.035-129.42c39.518-39.518 81.999-65.204 129.42-79.035 47.421-12.843 93.854-12.843 141.275 0s89.903 39.518 128.432 78.047l163.010 163.010c38.53 38.53 65.204 81.999 78.047 128.432s12.843 93.854 0 141.275-39.518 90.891-79.035 129.42c-13.831 13.831-29.638 24.699-47.421 35.566-18.771 10.867-41.493 18.771-69.156 25.686zM489.179 249.424l71.132 72.12c-28.65 3.952-52.361 10.867-71.132 19.759-19.759 8.891-35.566 20.747-49.397 34.578-26.674 26.674-45.445 57.301-54.337 89.903s-8.891 65.204 0 97.806c8.891 32.602 26.674 62.24 53.349 88.915l155.107 155.107c26.674 26.674 56.313 45.445 88.915 54.337s65.204 8.891 97.806 0c32.602-8.891 62.24-26.674 89.903-54.337 26.674-27.662 45.445-57.301 54.337-89.903s8.891-65.204 0-97.806c-8.891-32.602-26.674-62.24-53.349-88.915l-81.999-81.999c7.904-17.783 12.843-36.554 14.819-55.325s1.976-36.554 0-54.337l132.384 132.384c38.53 38.53 65.204 81.999 78.047 128.432s12.843 93.854 0 141.275-39.518 89.903-79.035 129.42c-39.518 39.518-81.999 66.192-129.42 79.035s-93.854 12.843-141.275 0c-47.421-12.843-89.903-39.518-128.432-78.047l-163.010-163.010c-38.53-38.53-65.204-81.999-78.047-128.432s-12.843-93.854 0-141.275 39.518-90.891 79.035-129.42c13.831-13.831 28.65-24.699 47.421-35.566 16.795-9.879 39.518-17.783 67.18-24.699z" />
</font>
</defs>
</svg>
